<svg width="20" height="20" viewBox="0 0 20 20" fill="none" xmlns="http://www.w3.org/2000/svg">
<g id="computer">
<path id="Vector 2464 (Stroke)" fill-rule="evenodd" clip-rule="evenodd" d="M10 13.896C10.3797 13.896 10.6875 14.2038 10.6875 14.5835V17.7918H12.75C13.1297 17.7918 13.4375 18.0996 13.4375 18.4793C13.4375 18.859 13.1297 19.1668 12.75 19.1668H7.25C6.8703 19.1668 6.5625 18.859 6.5625 18.4793C6.5625 18.0996 6.8703 17.7918 7.25 17.7918H9.3125V14.5835C9.3125 14.2038 9.6203 13.896 10 13.896Z" fill="#303133"/>
<path id="Rectangle 961" opacity="0.4" d="M0.833252 3.5835C0.833252 2.06471 2.06447 0.833496 3.58325 0.833496H16.4166C17.9354 0.833496 19.1666 2.06471 19.1666 3.5835V12.7502C19.1666 14.2689 17.9354 15.5002 16.4166 15.5002H3.58325C2.06447 15.5002 0.833252 14.2689 0.833252 12.7502V3.5835Z" fill="#303133"/>
<path id="Vector" d="M3.58325 15.5002H16.4166C17.9354 15.5002 19.1666 14.2689 19.1666 12.7502V11.8335H0.833252V12.7502C0.833252 14.2689 2.06447 15.5002 3.58325 15.5002Z" fill="#303133"/>
</g>
</svg>
