<svg width="14" height="20" viewBox="0 0 14 20" fill="none" xmlns="http://www.w3.org/2000/svg">
<g id="mobile">
<path id="Rectangle 1047" opacity="0.4" d="M0.583252 3.58325C0.583252 2.06447 1.81447 0.833252 3.33325 0.833252H10.6666C12.1854 0.833252 13.4166 2.06447 13.4166 3.58325V16.4166C13.4166 17.9354 12.1854 19.1666 10.6666 19.1666H3.33325C1.81447 19.1666 0.583252 17.9354 0.583252 16.4166V3.58325Z" fill="#606266"/>
<path id="Vector 2978 (Stroke)" fill-rule="evenodd" clip-rule="evenodd" d="M5.39575 16.4165C5.39575 16.0368 5.70356 15.729 6.08325 15.729H7.91659C8.29628 15.729 8.60409 16.0368 8.60409 16.4165C8.60409 16.7962 8.29628 17.104 7.91659 17.104H6.08325C5.70356 17.104 5.39575 16.7962 5.39575 16.4165Z" fill="#606266"/>
</g>
</svg>
