<svg width="22" height="22" viewBox="0 0 22 22" fill="none" xmlns="http://www.w3.org/2000/svg">
<path opacity="0.4" d="M11.7779 3.66675H10.2223C9.36319 3.66675 8.66674 4.3234 8.66674 5.13342C8.66674 6.06036 7.67496 6.64968 6.86082 6.2065L6.77813 6.16149C6.03412 5.75648 5.08275 5.99683 4.6532 6.69832L3.87541 7.96849C3.44586 8.66999 3.70078 9.56699 4.44479 9.972C5.25931 10.4154 5.25931 11.5848 4.44479 12.0282C3.70078 12.4332 3.44586 13.3302 3.87541 14.0317L4.65319 15.3018C5.08275 16.0033 6.03412 16.2437 6.77813 15.8387L6.86082 15.7937C7.67496 15.3505 8.66674 15.9398 8.66674 16.8667C8.66674 17.6768 9.36319 18.3334 10.2223 18.3334H11.7779C12.637 18.3334 13.3334 17.6768 13.3334 16.8667C13.3334 15.9398 14.3252 15.3505 15.1393 15.7937L15.222 15.8387C15.966 16.2437 16.9174 16.0033 17.347 15.3018L18.1248 14.0317C18.5543 13.3302 18.2994 12.4332 17.5554 12.0282C16.7409 11.5848 16.7409 10.4154 17.5554 9.97201C18.2994 9.567 18.5543 8.67 18.1248 7.96851L17.347 6.69834C16.9174 5.99684 15.966 5.75649 15.222 6.1615L15.1393 6.20651C14.3252 6.64969 13.3334 6.06036 13.3334 5.13341C13.3334 4.3234 12.637 3.66675 11.7779 3.66675Z" fill="#303133"/>
<path d="M13.75 11C13.75 12.5188 12.5188 13.75 11 13.75C9.48122 13.75 8.25 12.5188 8.25 11C8.25 9.48122 9.48122 8.25 11 8.25C12.5188 8.25 13.75 9.48122 13.75 11Z" fill="#303133"/>
</svg>
