<svg width="20" height="20" viewBox="0 0 20 20" fill="none" xmlns="http://www.w3.org/2000/svg">
<g id="computer">
<path id="Vector 2464 (Stroke)" fill-rule="evenodd" clip-rule="evenodd" d="M10 13.8958C10.3797 13.8958 10.6875 14.2036 10.6875 14.5833V17.7916H12.75C13.1297 17.7916 13.4375 18.0994 13.4375 18.4791C13.4375 18.8588 13.1297 19.1666 12.75 19.1666H7.25C6.8703 19.1666 6.5625 18.8588 6.5625 18.4791C6.5625 18.0994 6.8703 17.7916 7.25 17.7916H9.3125V14.5833C9.3125 14.2036 9.6203 13.8958 10 13.8958Z" fill="#24B7B3"/>
<path id="Rectangle 961" opacity="0.4" d="M0.833252 3.58325C0.833252 2.06447 2.06447 0.833252 3.58325 0.833252H16.4166C17.9354 0.833252 19.1666 2.06447 19.1666 3.58325V12.7499C19.1666 14.2687 17.9354 15.4999 16.4166 15.4999H3.58325C2.06447 15.4999 0.833252 14.2687 0.833252 12.7499V3.58325Z" fill="#24B7B3"/>
<path id="Vector" d="M3.58325 15.4999H16.4166C17.9354 15.4999 19.1666 14.2687 19.1666 12.7499V11.8333H0.833252V12.7499C0.833252 14.2687 2.06447 15.4999 3.58325 15.4999Z" fill="#24B7B3"/>
</g>
</svg>
