<svg width="22" height="22" viewBox="0 0 22 22" fill="none" xmlns="http://www.w3.org/2000/svg">
<path opacity="0.4" d="M11.7779 3.6665H10.2223C9.36319 3.6665 8.66674 4.32315 8.66674 5.13317C8.66674 6.06011 7.67496 6.64944 6.86082 6.20626L6.77813 6.16124C6.03412 5.75623 5.08275 5.99658 4.6532 6.69808L3.87541 7.96825C3.44586 8.66975 3.70078 9.56675 4.44479 9.97176C5.25931 10.4151 5.25931 11.5845 4.44479 12.0279C3.70078 12.4329 3.44586 13.3299 3.87541 14.0314L4.65319 15.3016C5.08275 16.0031 6.03412 16.2434 6.77813 15.8384L6.86082 15.7934C7.67496 15.3502 8.66674 15.9396 8.66674 16.8665C8.66674 17.6765 9.36319 18.3332 10.2223 18.3332H11.7779C12.637 18.3332 13.3334 17.6765 13.3334 16.8665C13.3334 15.9396 14.3252 15.3502 15.1393 15.7934L15.222 15.8384C15.966 16.2434 16.9174 16.0031 17.347 15.3016L18.1248 14.0314C18.5543 13.3299 18.2994 12.4329 17.5554 12.0279C16.7409 11.5845 16.7409 10.4152 17.5554 9.97177C18.2994 9.56676 18.5543 8.66976 18.1248 7.96826L17.347 6.69809C16.9174 5.9966 15.966 5.75624 15.222 6.16125L15.1393 6.20626C14.3252 6.64945 13.3334 6.06012 13.3334 5.13317C13.3334 4.32315 12.637 3.6665 11.7779 3.6665Z" fill="#24B7B3"/>
<path d="M13.75 11C13.75 12.5188 12.5188 13.75 11 13.75C9.48122 13.75 8.25 12.5188 8.25 11C8.25 9.48122 9.48122 8.25 11 8.25C12.5188 8.25 13.75 9.48122 13.75 11Z" fill="#24B7B3"/>
</svg>
