<svg width="14" height="20" viewBox="0 0 14 20" fill="none" xmlns="http://www.w3.org/2000/svg">
<g id="mobile">
<path id="Rectangle 1047" opacity="0.4" d="M0.583252 3.5835C0.583252 2.06471 1.81447 0.833496 3.33325 0.833496H10.6666C12.1854 0.833496 13.4166 2.06471 13.4166 3.5835V16.4168C13.4166 17.9356 12.1854 19.1668 10.6666 19.1668H3.33325C1.81447 19.1668 0.583252 17.9356 0.583252 16.4168V3.5835Z" fill="#24B7B3"/>
<path id="Vector 2978 (Stroke)" fill-rule="evenodd" clip-rule="evenodd" d="M5.39575 16.417C5.39575 16.0373 5.70356 15.7295 6.08325 15.7295H7.91659C8.29628 15.7295 8.60409 16.0373 8.60409 16.417C8.60409 16.7967 8.29628 17.1045 7.91659 17.1045H6.08325C5.70356 17.1045 5.39575 16.7967 5.39575 16.417Z" fill="#24B7B3"/>
</g>
</svg>
