<svg id="logo02" xmlns="http://www.w3.org/2000/svg" width="80" height="64" viewBox="0 0 80 64">
  <rect id="사각형_9378" data-name="사각형 9378" width="80" height="64" fill="rgba(255,255,255,0)"/>
  <path id="패스_17268" data-name="패스 17268" d="M80.055,0V41.981h2.352V0Z" transform="translate(-26.559 4)" fill="#0083c7"/>
  <path id="패스_17269" data-name="패스 17269" d="M33.97,0V41.981h2.365V0Z" transform="translate(-10.118 4)" fill="#0083c7"/>
  <path id="패스_17270" data-name="패스 17270" d="M61.56,54.333h2.218V34.627H41.653V54.333h2.36V36.987H61.56Z" transform="translate(-12.859 -8.354)" fill="#0083c7"/>
  <path id="패스_17271" data-name="패스 17271" d="M61.559,0V17.339H44.013V0H41.652V19.7H63.777V0Z" transform="translate(-12.859 4)" fill="#0083c7"/>
  <path id="패스_17272" data-name="패스 17272" d="M59.156,0V12.348H51.751V0H49.337V14.76H61.721V0Z" transform="translate(-15.601 4)" fill="#0083c7"/>
  <rect id="사각형_10421" data-name="사각형 10421" width="2.414" height="41.981" transform="translate(18.861 4)" fill="#0083c7"/>
  <rect id="사각형_10422" data-name="사각형 10422" width="2.414" height="41.981" transform="translate(58.433 4)" fill="#0083c7"/>
  <path id="패스_17273" data-name="패스 17273" d="M61.721,57.074V42.31H49.337V57.074h2.411V44.732h7.408V57.074Z" transform="translate(-15.601 -11.094)" fill="#0083c7"/>
  <g id="그룹_14440" data-name="그룹 14440" transform="translate(12640 18090)">
    <path id="패스_17274" data-name="패스 17274" d="M3.489,76.979,1.244,79.753V76.979H0v6.37H1.244V81.434l.823-.984,1.637,2.9H5.153L2.889,79.511,5,76.979Z" transform="translate(-12638 -18113.461)" fill="#fff"/>
    <path id="패스_17275" data-name="패스 17275" d="M12.925,80.135a9.431,9.431,0,0,1-.071,1.44,2.062,2.062,0,0,1-.564,1.1,2.388,2.388,0,0,1-.76.523,2.438,2.438,0,0,1-.958.175,2.477,2.477,0,0,1-.957-.175,2.35,2.35,0,0,1-.769-.523,2,2,0,0,1-.554-1.092,9.4,9.4,0,0,1-.073-1.449,9.308,9.308,0,0,1,.073-1.44,2.032,2.032,0,0,1,.554-1.1,2.378,2.378,0,0,1,.765-.524,2.7,2.7,0,0,1,1.91,0,2.355,2.355,0,0,1,.769.524,2.034,2.034,0,0,1,.555,1.092,8.812,8.812,0,0,1,.08,1.449m-1.243,0a7.991,7.991,0,0,0-.063-1.244,1.122,1.122,0,0,0-.25-.545,1,1,0,0,0-.8-.34,1.121,1.121,0,0,0-.461.09,1,1,0,0,0-.345.25,1.052,1.052,0,0,0-.246.542,8.648,8.648,0,0,0-.058,1.248,9.377,9.377,0,0,0,.053,1.257,1.025,1.025,0,0,0,1.056.872,1,1,0,0,0,.8-.34,1.176,1.176,0,0,0,.246-.563,7.659,7.659,0,0,0,.067-1.225" transform="translate(-12640.932 -18113.432)" fill="#fff"/>
    <path id="패스_17276" data-name="패스 17276" d="M21.638,83.349H20.2l-1.244-2.541h-.895v2.541H16.815v-6.37h2.5a2.058,2.058,0,0,1,1.521.573,1.868,1.868,0,0,1,.546,1.377A1.726,1.726,0,0,1,20.215,80.6Zm-1.5-4.424a.788.788,0,0,0-.246-.609.932.932,0,0,0-.657-.227H18.058v1.673h1.173a.92.92,0,0,0,.652-.232.785.785,0,0,0,.251-.605" transform="translate(-12643.998 -18113.461)" fill="#fff"/>
    <path id="패스_17277" data-name="패스 17277" d="M29.412,83.349h-4.2v-6.37h4.2v1.11H26.46v1.494h2.514v1.109H26.46v1.548h2.952Z" transform="translate(-12646.995 -18113.461)" fill="#fff"/>
    <path id="패스_17278" data-name="패스 17278" d="M37.468,83.349h-1.3L35.8,82.222H33.531l-.385,1.128h-1.3l2.317-6.37h.975Zm-2-2.174-.778-2.317-.805,2.317Z" transform="translate(-12649.362 -18113.461)" fill="#fff"/>
    <path id="패스_17279" data-name="패스 17279" d="M48.287,83.349H47.043V80.683H44.887v2.666H43.643v-6.37h1.244v2.6h2.156v-2.6h1.244Z" transform="translate(-12653.569 -18113.461)" fill="#fff"/>
    <path id="패스_17280" data-name="패스 17280" d="M56.672,83.349h-4.2v-6.37h4.2v1.11H53.719v1.494h2.514v1.109H53.719v1.548h2.953Z" transform="translate(-12656.72 -18113.461)" fill="#fff"/>
    <path id="패스_17281" data-name="패스 17281" d="M65.018,83.349h-1.44l-1.244-2.541h-.895v2.541H60.195v-6.37h2.5a2.058,2.058,0,0,1,1.521.573,1.868,1.868,0,0,1,.546,1.377A1.726,1.726,0,0,1,63.595,80.6Zm-1.5-4.424a.789.789,0,0,0-.246-.609.929.929,0,0,0-.657-.227H61.438v1.673h1.173a.921.921,0,0,0,.652-.232.785.785,0,0,0,.251-.605" transform="translate(-12659.474 -18113.461)" fill="#fff"/>
    <path id="패스_17282" data-name="패스 17282" d="M73.129,83.349h-1.3l-.376-1.128H69.193l-.385,1.128h-1.3l2.317-6.37H70.8Zm-2-2.174-.778-2.317-.805,2.317Z" transform="translate(-12662.084 -18113.461)" fill="#fff"/>
    <path id="패스_17283" data-name="패스 17283" d="M80.907,83.349H76.773v-6.37h1.244v5.261h2.89Z" transform="translate(-12665.388 -18113.461)" fill="#fff"/>
    <path id="패스_17284" data-name="패스 17284" d="M88.7,80.137v.412a5.627,5.627,0,0,1-.089,1.163,2.048,2.048,0,0,1-.554,1.029,1.932,1.932,0,0,1-.738.452,2.816,2.816,0,0,1-.944.156h-2.3v-6.37h2.3a2.871,2.871,0,0,1,.94.148,1.924,1.924,0,0,1,.743.461,2.046,2.046,0,0,1,.554,1,5.431,5.431,0,0,1,.089,1.145Zm-1.243,0a8.6,8.6,0,0,0-.05-1.105,1.1,1.1,0,0,0-.214-.541,1.033,1.033,0,0,0-.39-.3,1.349,1.349,0,0,0-.545-.1h-.939V82.24h.939a1.133,1.133,0,0,0,.93-.394,1.1,1.1,0,0,0,.219-.56,9.355,9.355,0,0,0,.05-1.15" transform="translate(-12667.992 -18113.461)" fill="#fff"/>
    <path id="패스_17285" data-name="패스 17285" d="M99.611,81.166a2.1,2.1,0,0,1-.666,1.619,2.581,2.581,0,0,1-3.35,0,2.1,2.1,0,0,1-.672-1.619V76.979h1.244v4.142a1.206,1.206,0,0,0,.295.859,1.055,1.055,0,0,0,.805.313,1.076,1.076,0,0,0,.81-.309,1.185,1.185,0,0,0,.3-.863V76.979h1.234Z" transform="translate(-12671.862 -18113.461)" fill="#fff"/>
    <path id="패스_17286" data-name="패스 17286" d="M107.47,81.441a1.716,1.716,0,0,1-.681,1.432,2.663,2.663,0,0,1-1.681.5,4.107,4.107,0,0,1-1.315-.188,2.557,2.557,0,0,1-1.011-.653l.8-.805a1.661,1.661,0,0,0,.676.412,2.8,2.8,0,0,0,.863.125q1.127,0,1.128-.787a.708.708,0,0,0-.2-.537.814.814,0,0,0-.224-.138,1.243,1.243,0,0,0-.34-.085l-.77-.107a2.149,2.149,0,0,1-1.234-.528,1.693,1.693,0,0,1-.457-1.252,1.791,1.791,0,0,1,.594-1.4,2.348,2.348,0,0,1,1.624-.532,3.535,3.535,0,0,1,1.159.17,2.432,2.432,0,0,1,.9.572l-.787.778a1.445,1.445,0,0,0-.6-.344,2.576,2.576,0,0,0-.7-.094,1.067,1.067,0,0,0-.733.223.745.745,0,0,0-.25.582.711.711,0,0,0,.04.251.549.549,0,0,0,.148.206,1.07,1.07,0,0,0,.591.25l.751.107a2.242,2.242,0,0,1,1.216.492,1.4,1.4,0,0,1,.376.577,2.352,2.352,0,0,1,.117.774" transform="translate(-12674.666 -18113.432)" fill="#fff"/>
    <path id="패스_17287" data-name="패스 17287" d="M115.729,83.349h-1.3l-.376-1.128h-2.264l-.385,1.128h-1.3l2.317-6.37h.975Zm-2-2.174-.778-2.317-.805,2.317Z" transform="translate(-12677.28 -18113.461)" fill="#fff"/>
  </g>
</svg>
