<svg id="logo01" xmlns="http://www.w3.org/2000/svg" xmlns:xlink="http://www.w3.org/1999/xlink" width="204" height="24" viewBox="0 0 204 24">
  <defs>
    <clipPath id="clip-path">
      <rect id="사각형_10426" data-name="사각형 10426" width="201.916" height="20.689" fill="none"/>
    </clipPath>
  </defs>
  <rect id="사각형_10430" data-name="사각형 10430" width="204" height="24" fill="rgba(255,255,255,0)"/>
  <g id="그룹_14447" data-name="그룹 14447" transform="translate(1.042 1.656)">
    <rect id="사각형_10424" data-name="사각형 10424" width="1.189" height="20.689" transform="translate(0 0)" fill="#0083c7"/>
    <path id="패스_17288" data-name="패스 17288" d="M61.349,20.217H58.031l-3.748-6.636L52.4,15.833v4.383H49.552V5.634H52.4v6.35l5.141-6.35H61l-4.834,5.8Z" transform="translate(-22.653 -2.575)" fill="#1a1818"/>
    <g id="그룹_14446" data-name="그룹 14446" transform="translate(0 0)">
      <g id="그룹_14445" data-name="그룹 14445" clip-path="url(#clip-path)">
        <path id="패스_17289" data-name="패스 17289" d="M82.624,12.822a21.477,21.477,0,0,1-.164,3.3,4.7,4.7,0,0,1-1.29,2.519,5.486,5.486,0,0,1-1.741,1.2,5.578,5.578,0,0,1-2.192.4,5.674,5.674,0,0,1-2.191-.4,5.425,5.425,0,0,1-1.762-1.2,4.57,4.57,0,0,1-1.27-2.5,21.932,21.932,0,0,1-.164-3.318,21.738,21.738,0,0,1,.164-3.3A4.678,4.678,0,0,1,73.284,7a5.457,5.457,0,0,1,1.752-1.2,6.181,6.181,0,0,1,4.373,0A5.42,5.42,0,0,1,81.169,7a4.663,4.663,0,0,1,1.27,2.5,20.208,20.208,0,0,1,.185,3.318m-2.847,0a18.344,18.344,0,0,0-.143-2.847,2.581,2.581,0,0,0-.573-1.249,2.292,2.292,0,0,0-1.823-.778,2.574,2.574,0,0,0-1.054.2,2.282,2.282,0,0,0-.789.574,2.392,2.392,0,0,0-.563,1.239,19.906,19.906,0,0,0-.134,2.857A21.354,21.354,0,0,0,74.82,15.7a2.348,2.348,0,0,0,2.417,2,2.29,2.29,0,0,0,1.823-.778,2.681,2.681,0,0,0,.563-1.29,17.49,17.49,0,0,0,.153-2.806" transform="translate(-32.847 -2.472)" fill="#1a1818"/>
        <path id="패스_17290" data-name="패스 17290" d="M106.208,20.216h-3.3L100.063,14.4H98.015v5.817H95.168V5.633h5.714a4.709,4.709,0,0,1,3.482,1.31,4.271,4.271,0,0,1,1.25,3.153,3.95,3.95,0,0,1-2.663,3.828Zm-3.441-10.128a1.808,1.808,0,0,0-.563-1.4,2.137,2.137,0,0,0-1.506-.519H98.015V12H100.7a2.114,2.114,0,0,0,1.495-.53,1.8,1.8,0,0,0,.574-1.385" transform="translate(-43.507 -2.575)" fill="#1a1818"/>
        <path id="패스_17291" data-name="패스 17291" d="M127.564,20.217h-9.606V5.634h9.606v2.54H120.8v3.42h5.756v2.539H120.8v3.544h6.759Z" transform="translate(-53.926 -2.575)" fill="#1a1818"/>
        <path id="패스_17292" data-name="패스 17292" d="M148.819,20.217h-2.97l-.86-2.581h-5.182l-.88,2.581h-2.97l5.3-14.583h2.233Zm-4.588-4.977-1.782-5.3-1.843,5.3Z" transform="translate(-62.154 -2.576)" fill="#1a1818"/>
        <path id="패스_17293" data-name="패스 17293" d="M178.582,20.217h-2.847v-6.1H170.8v6.1h-2.847V5.634H170.8v5.96h4.937V5.634h2.847Z" transform="translate(-76.781 -2.575)" fill="#1a1818"/>
        <path id="패스_17294" data-name="패스 17294" d="M201.518,20.217h-9.606V5.634h9.606v2.54h-6.759v3.42h5.756v2.539h-5.756v3.544h6.759Z" transform="translate(-87.735 -2.575)" fill="#1a1818"/>
        <path id="패스_17295" data-name="패스 17295" d="M223.892,20.216h-3.3L217.747,14.4H215.7v5.817h-2.847V5.633h5.714a4.708,4.708,0,0,1,3.482,1.31A4.271,4.271,0,0,1,223.3,10.1a3.95,3.95,0,0,1-2.663,3.828Zm-3.441-10.128a1.808,1.808,0,0,0-.563-1.4,2.137,2.137,0,0,0-1.506-.519H215.7V12h2.683a2.114,2.114,0,0,0,1.495-.53,1.8,1.8,0,0,0,.574-1.385" transform="translate(-97.308 -2.575)" fill="#1a1818"/>
        <path id="패스_17296" data-name="패스 17296" d="M245.562,20.217h-2.97l-.86-2.581H236.55l-.88,2.581H232.7L238,5.634h2.233Zm-4.588-4.977-1.782-5.3-1.843,5.3Z" transform="translate(-106.381 -2.576)" fill="#1a1818"/>
        <path id="패스_17297" data-name="패스 17297" d="M267.29,20.217h-9.463V5.634h2.847V17.677h6.616Z" transform="translate(-117.869 -2.575)" fill="#1a1818"/>
        <path id="패스_17298" data-name="패스 17298" d="M288.225,12.864v.942a12.929,12.929,0,0,1-.2,2.663,4.675,4.675,0,0,1-1.27,2.355,4.438,4.438,0,0,1-1.689,1.035,6.437,6.437,0,0,1-2.16.358h-5.264V5.634H282.9a6.578,6.578,0,0,1,2.15.338,4.383,4.383,0,0,1,1.7,1.055,4.661,4.661,0,0,1,1.27,2.294,12.482,12.482,0,0,1,.2,2.621Zm-2.847,0a19.63,19.63,0,0,0-.113-2.53,2.528,2.528,0,0,0-.491-1.239,2.356,2.356,0,0,0-.891-.7,3.093,3.093,0,0,0-1.25-.225h-2.151v9.5h2.151a2.594,2.594,0,0,0,2.131-.9,2.518,2.518,0,0,0,.5-1.28,21.389,21.389,0,0,0,.113-2.632" transform="translate(-126.925 -2.576)" fill="#1a1818"/>
        <path id="패스_17299" data-name="패스 17299" d="M317.8,15.219a4.816,4.816,0,0,1-1.526,3.708,5.91,5.91,0,0,1-7.67,0,4.8,4.8,0,0,1-1.536-3.708V5.634h2.847v9.483a2.752,2.752,0,0,0,.676,1.966,2.414,2.414,0,0,0,1.843.717,2.466,2.466,0,0,0,1.854-.706,2.722,2.722,0,0,0,.686-1.976V5.634H317.8Z" transform="translate(-140.38 -2.576)" fill="#1a1818"/>
        <path id="패스_17300" data-name="패스 17300" d="M339.118,15.813a3.929,3.929,0,0,1-1.556,3.277,6.1,6.1,0,0,1-3.851,1.147,9.418,9.418,0,0,1-3.011-.43,5.868,5.868,0,0,1-2.314-1.495l1.843-1.843a3.8,3.8,0,0,0,1.547.942,6.405,6.405,0,0,0,1.976.287q2.581,0,2.581-1.8a1.618,1.618,0,0,0-.451-1.229,1.87,1.87,0,0,0-.512-.318,2.961,2.961,0,0,0-.778-.194l-1.761-.246A4.924,4.924,0,0,1,330,12.7a3.876,3.876,0,0,1-1.044-2.868,4.094,4.094,0,0,1,1.362-3.2,5.373,5.373,0,0,1,3.718-1.219,8.094,8.094,0,0,1,2.652.389,5.559,5.559,0,0,1,2.058,1.311l-1.8,1.782a3.317,3.317,0,0,0-1.383-.789,5.935,5.935,0,0,0-1.608-.215,2.451,2.451,0,0,0-1.68.512A1.7,1.7,0,0,0,331.7,9.73a1.62,1.62,0,0,0,.092.573,1.237,1.237,0,0,0,.338.471,2.454,2.454,0,0,0,1.352.573l1.72.246a5.137,5.137,0,0,1,2.786,1.126,3.22,3.22,0,0,1,.86,1.321,5.419,5.419,0,0,1,.266,1.772" transform="translate(-150.126 -2.472)" fill="#1a1818"/>
        <path id="패스_17301" data-name="패스 17301" d="M361.132,20.217h-2.97l-.86-2.581H352.12l-.88,2.581h-2.97l5.3-14.583h2.233Zm-4.588-4.977-1.782-5.3-1.843,5.3Z" transform="translate(-159.216 -2.576)" fill="#1a1818"/>
        <path id="패스_17302" data-name="패스 17302" d="M32.609,0H31.45V20.689h1.16Z" transform="translate(-14.378 0)" fill="#0083c7"/>
        <path id="패스_17303" data-name="패스 17303" d="M4.537,0V20.689H5.7V0Z" transform="translate(-2.074 0)" fill="#0083c7"/>
        <path id="패스_17304" data-name="패스 17304" d="M18.834,29.933h1.093V20.222H9.023v9.711h1.163V21.385h8.647Z" transform="translate(-4.125 -9.245)" fill="#0083c7"/>
        <path id="패스_17305" data-name="패스 17305" d="M10.187,0H9.023V9.708h10.9V0H18.834V8.545H10.187Z" transform="translate(-4.125 0)" fill="#0083c7"/>
        <path id="패스_17306" data-name="패스 17306" d="M13.511,0V7.275h6.1V0H18.35V6.085H14.7V0Z" transform="translate(-6.177 0)" fill="#0083c7"/>
        <rect id="사각형_10425" data-name="사각형 10425" width="1.19" height="20.689" transform="translate(19.505)" fill="#0083c7"/>
        <path id="패스_17307" data-name="패스 17307" d="M19.614,31.984V24.708h-6.1v7.276H14.7V25.9H18.35v6.082Z" transform="translate(-6.177 -11.295)" fill="#0083c7"/>
      </g>
    </g>
  </g>
</svg>
