<svg id="m_logo" xmlns="http://www.w3.org/2000/svg" xmlns:xlink="http://www.w3.org/1999/xlink" width="164" height="20" viewBox="0 0 164 20">
  <defs>
    <clipPath id="clip-path">
      <rect id="사각형_10426" data-name="사각형 10426" width="161.989" height="16.598" fill="none"/>
    </clipPath>
  </defs>
  <rect id="사각형_10430" data-name="사각형 10430" width="164" height="20" fill="rgba(255,255,255,0)"/>
  <g id="그룹_14447" data-name="그룹 14447" transform="translate(1.006 1.941)">
    <rect id="사각형_10424" data-name="사각형 10424" width="0.954" height="16.598" transform="translate(0 0)" fill="#0083c7"/>
    <path id="패스_17288" data-name="패스 17288" d="M59.016,17.333H56.354l-3.007-5.324-1.512,1.807v3.517H49.552V5.634h2.284v5.094L55.96,5.634h2.777l-3.878,4.65Z" transform="translate(-27.972 -3.18)" fill="#1a1818"/>
    <g id="그룹_14446" data-name="그룹 14446" transform="translate(0 0)">
      <g id="그룹_14445" data-name="그룹 14445" clip-path="url(#clip-path)">
        <path id="패스_17289" data-name="패스 17289" d="M80.493,11.355A17.229,17.229,0,0,1,80.362,14a3.77,3.77,0,0,1-1.035,2.021,4.4,4.4,0,0,1-1.4.961,4.475,4.475,0,0,1-1.759.321,4.552,4.552,0,0,1-1.758-.321A4.353,4.353,0,0,1,73,16.022a3.666,3.666,0,0,1-1.019-2,17.594,17.594,0,0,1-.132-2.662,17.438,17.438,0,0,1,.132-2.646A3.753,3.753,0,0,1,73,6.689a4.378,4.378,0,0,1,1.405-.961,4.959,4.959,0,0,1,3.508,0,4.348,4.348,0,0,1,1.413.961,3.741,3.741,0,0,1,1.019,2.005,16.212,16.212,0,0,1,.148,2.662m-2.284,0a14.716,14.716,0,0,0-.115-2.284,2.07,2.07,0,0,0-.46-1,1.839,1.839,0,0,0-1.463-.625,2.065,2.065,0,0,0-.846.164,1.83,1.83,0,0,0-.633.46,1.919,1.919,0,0,0-.452.994,15.971,15.971,0,0,0-.107,2.292,17.131,17.131,0,0,0,.1,2.309,1.883,1.883,0,0,0,1.939,1.6,1.837,1.837,0,0,0,1.463-.624,2.151,2.151,0,0,0,.452-1.035,14.031,14.031,0,0,0,.123-2.251" transform="translate(-40.56 -3.052)" fill="#1a1818"/>
        <path id="패스_17290" data-name="패스 17290" d="M104.025,17.333h-2.645L99.1,12.666H97.452v4.667H95.168V5.633h4.584a3.778,3.778,0,0,1,2.794,1.051,3.427,3.427,0,0,1,1,2.529,3.169,3.169,0,0,1-2.136,3.071Zm-2.761-8.125a1.45,1.45,0,0,0-.452-1.12A1.714,1.714,0,0,0,99.6,7.671H97.452v3.073H99.6a1.7,1.7,0,0,0,1.2-.425,1.443,1.443,0,0,0,.46-1.111" transform="translate(-53.723 -3.18)" fill="#1a1818"/>
        <path id="패스_17291" data-name="패스 17291" d="M125.664,17.333h-7.707V5.634h7.707V7.671h-5.422v2.744h4.618v2.037h-4.618V15.3h5.422Z" transform="translate(-66.588 -3.18)" fill="#1a1818"/>
        <path id="패스_17292" data-name="패스 17292" d="M146.275,17.334h-2.383l-.69-2.07h-4.157l-.706,2.07h-2.383l4.256-11.7H142Zm-3.68-3.993-1.43-4.256-1.479,4.256Z" transform="translate(-76.748 -3.18)" fill="#1a1818"/>
        <path id="패스_17293" data-name="패스 17293" d="M176.48,17.333H174.2v-4.9h-3.96v4.9h-2.284V5.634h2.284v4.782h3.96V5.634h2.284Z" transform="translate(-94.809 -3.18)" fill="#1a1818"/>
        <path id="패스_17294" data-name="패스 17294" d="M199.618,17.333h-7.707V5.634h7.707V7.671H194.2v2.744h4.618v2.037H194.2V15.3h5.423Z" transform="translate(-108.335 -3.18)" fill="#1a1818"/>
        <path id="패스_17295" data-name="패스 17295" d="M221.709,17.333h-2.645l-2.284-4.667h-1.644v4.667h-2.284V5.633h4.584a3.777,3.777,0,0,1,2.793,1.051,3.427,3.427,0,0,1,1,2.529,3.169,3.169,0,0,1-2.136,3.071Zm-2.761-8.125a1.45,1.45,0,0,0-.452-1.12,1.714,1.714,0,0,0-1.208-.417h-2.153v3.073h2.153a1.7,1.7,0,0,0,1.2-.425,1.443,1.443,0,0,0,.46-1.111" transform="translate(-120.156 -3.18)" fill="#1a1818"/>
        <path id="패스_17296" data-name="패스 17296" d="M243.018,17.334h-2.383l-.69-2.07h-4.157l-.706,2.07H232.7l4.256-11.7h1.792Zm-3.68-3.993-1.43-4.256-1.479,4.256Z" transform="translate(-131.36 -3.18)" fill="#1a1818"/>
        <path id="패스_17297" data-name="패스 17297" d="M265.419,17.333h-7.592V5.634h2.284V15.3h5.308Z" transform="translate(-145.545 -3.18)" fill="#1a1818"/>
        <path id="패스_17298" data-name="패스 17298" d="M286.131,11.434v.756a10.372,10.372,0,0,1-.164,2.136,3.75,3.75,0,0,1-1.019,1.89,3.561,3.561,0,0,1-1.355.83,5.164,5.164,0,0,1-1.733.287h-4.223V5.634h4.223a5.277,5.277,0,0,1,1.725.271,3.516,3.516,0,0,1,1.364.846,3.739,3.739,0,0,1,1.019,1.84,10.014,10.014,0,0,1,.164,2.1Zm-2.284,0a15.751,15.751,0,0,0-.091-2.029,2.028,2.028,0,0,0-.394-.994,1.89,1.89,0,0,0-.715-.559,2.481,2.481,0,0,0-1-.181H279.92V15.3h1.725a2.081,2.081,0,0,0,1.709-.723,2.02,2.02,0,0,0,.4-1.027,17.162,17.162,0,0,0,.091-2.112" transform="translate(-156.727 -3.18)" fill="#1a1818"/>
        <path id="패스_17299" data-name="패스 17299" d="M315.677,13.324a3.864,3.864,0,0,1-1.225,2.974,4.742,4.742,0,0,1-6.153,0,3.852,3.852,0,0,1-1.232-2.974V5.634h2.284v7.608a2.208,2.208,0,0,0,.542,1.577,1.937,1.937,0,0,0,1.479.575,1.979,1.979,0,0,0,1.487-.567,2.183,2.183,0,0,0,.55-1.586V5.634h2.268Z" transform="translate(-173.341 -3.18)" fill="#1a1818"/>
        <path id="패스_17300" data-name="패스 17300" d="M337,13.755a3.152,3.152,0,0,1-1.249,2.629,4.89,4.89,0,0,1-3.089.92,7.555,7.555,0,0,1-2.416-.345,4.707,4.707,0,0,1-1.857-1.2l1.479-1.479a3.052,3.052,0,0,0,1.241.756,5.139,5.139,0,0,0,1.585.23q2.071,0,2.07-1.446a1.3,1.3,0,0,0-.361-.986,1.5,1.5,0,0,0-.411-.255,2.376,2.376,0,0,0-.625-.156l-1.413-.2a3.95,3.95,0,0,1-2.268-.969,3.11,3.11,0,0,1-.838-2.3,3.284,3.284,0,0,1,1.093-2.571,4.311,4.311,0,0,1,2.983-.978,6.494,6.494,0,0,1,2.128.312A4.46,4.46,0,0,1,336.7,6.772L335.254,8.2a2.661,2.661,0,0,0-1.109-.633,4.762,4.762,0,0,0-1.29-.172,1.966,1.966,0,0,0-1.347.411,1.366,1.366,0,0,0-.46,1.068,1.3,1.3,0,0,0,.074.46.993.993,0,0,0,.271.378,1.969,1.969,0,0,0,1.084.46l1.38.2a4.122,4.122,0,0,1,2.235.9,2.583,2.583,0,0,1,.69,1.06A4.347,4.347,0,0,1,337,13.755" transform="translate(-185.375 -3.053)" fill="#1a1818"/>
        <path id="패스_17301" data-name="패스 17301" d="M358.588,17.334h-2.383l-.69-2.07h-4.157l-.706,2.07h-2.383l4.256-11.7h1.792Zm-3.68-3.993-1.43-4.256L352,13.341Z" transform="translate(-196.599 -3.18)" fill="#1a1818"/>
        <path id="패스_17302" data-name="패스 17302" d="M32.38,0h-.93V16.6h.93Z" transform="translate(-17.753 0)" fill="#0083c7"/>
        <path id="패스_17303" data-name="패스 17303" d="M4.537,0V16.6h.935V0Z" transform="translate(-2.561 0)" fill="#0083c7"/>
        <path id="패스_17304" data-name="패스 17304" d="M16.894,28.013h.877V20.222H9.023v7.791h.933V21.155h6.937Z" transform="translate(-5.094 -11.415)" fill="#0083c7"/>
        <path id="패스_17305" data-name="패스 17305" d="M9.956,0H9.023V7.788h8.747V0h-.877V6.855H9.956Z" transform="translate(-5.094 0)" fill="#0083c7"/>
        <path id="패스_17306" data-name="패스 17306" d="M13.511,0V5.836h4.9V0H17.393V4.882H14.466V0Z" transform="translate(-7.627 0)" fill="#0083c7"/>
        <rect id="사각형_10425" data-name="사각형 10425" width="0.955" height="16.598" transform="translate(15.648)" fill="#0083c7"/>
        <path id="패스_17307" data-name="패스 17307" d="M18.407,30.545V24.708h-4.9v5.837h.953v-4.88h2.929v4.88Z" transform="translate(-7.627 -13.948)" fill="#0083c7"/>
      </g>
    </g>
  </g>
</svg>
